<?xml version="1.0" encoding="utf-8"?>
<!-- Generator: Adobe Illustrator 16.0.0, SVG Export Plug-In . SVG Version: 6.00 Build 0)  -->
<!DOCTYPE svg PUBLIC "-//W3C//DTD SVG 1.1//EN" "http://www.w3.org/Graphics/SVG/1.1/DTD/svg11.dtd">
<svg version="1.1" id="圖層_1" xmlns="http://www.w3.org/2000/svg" xmlns:xlink="http://www.w3.org/1999/xlink" x="0px" y="0px"
	 width="20px" height="20px" viewBox="-2 -2 20 20" enable-background="new -2 -2 20 20" xml:space="preserve">
<path fill="#FFD370" stroke="#FFD370" stroke-linecap="round" stroke-linejoin="round" stroke-miterlimit="10" d="M16.771,3.609
	c0.304,0.305,0.306,0.8,0.002,1.106c-0.002,0-0.002,0-0.002,0.001L5.816,15.671c-0.307,0.305-0.802,0.308-1.107,0.003
	c-0.001-0.002-0.001-0.002-0.001-0.003l-5.478-5.477c-0.306-0.306-0.306-0.802,0-1.108c0.305-0.305,0.802-0.305,1.108,0l4.924,4.925
	L15.664,3.609c0.304-0.306,0.801-0.307,1.107-0.002C16.771,3.608,16.771,3.608,16.771,3.609z"/>
</svg>
